<svg xmlns="http://www.w3.org/2000/svg" viewBox="0 0 106.64 82.15"><defs><style>.cls-1{fill:#d1161a;}</style></defs><g id="レイヤー_2" data-name="レイヤー 2"><g id="_2021" data-name="2021"><path class="cls-1" d="M79.35,15.35a5.79,5.79,0,1,0-5.79,5.78A5.79,5.79,0,0,0,79.35,15.35Z"/><path class="cls-1" d="M65.42,18.14a7.58,7.58,0,0,1-.28-1L20.91,29.55c.11.32.19.64.27,1Z"/><path class="cls-1" d="M9.34,24a9.34,9.34,0,1,0,9.34,9.34A9.35,9.35,0,0,0,9.34,24Z"/><path class="cls-1" d="M62.64,39.13l7.24-16a7.5,7.5,0,0,1-.88-.48L61.73,38.72Z"/><circle class="cls-1" cx="52.25" cy="60.88" r="21.27"/><path class="cls-1" d="M37.23,42,21,36.67c-.09.32-.2.63-.32.94L36.33,42.8C36.62,42.54,36.92,42.29,37.23,42Z"/><path class="cls-1" d="M100.85,57.91a5.79,5.79,0,1,0,5.79,5.79A5.8,5.8,0,0,0,100.85,57.91Z"/><path class="cls-1" d="M75.84,55.92l16.69,5.54c.09-.32.19-.64.31-1L75.57,54.77Z"/><circle class="cls-1" cx="41.73" cy="3.36" r="3.36"/><path class="cls-1" d="M65.69,11.85l-18-6.78a6.12,6.12,0,0,1-.35.93l18,6.78A7.45,7.45,0,0,1,65.69,11.85Z"/></g></g></svg>