<svg xmlns="http://www.w3.org/2000/svg" viewBox="0 0 114.18 114.18"><defs><style>.cls-1{fill:#d1161a;}</style></defs><g id="レイヤー_2" data-name="レイヤー 2"><g id="_2021" data-name="2021"><path class="cls-1" d="M98.89,15.3,41.79,0,0,41.79l15.3,57.1,57.09,15.29,41.79-41.79ZM50,12.38a8.1,8.1,0,1,1-8.1,8.1A8.1,8.1,0,0,1,50,12.38ZM49.27,30,43.72,74c-.32-.06-.65-.1-1-.13l5.55-44C48.6,29.9,48.93,29.94,49.27,30ZM17.91,48.64A4.6,4.6,0,1,1,22.5,44,4.6,4.6,0,0,1,17.91,48.64Zm4.52-8.54L42,25.7c.19.28.38.55.59.81L23,40.9A6.68,6.68,0,0,0,22.43,40.1ZM41.86,94.39a9.58,9.58,0,1,1,9.57-9.57A9.57,9.57,0,0,1,41.86,94.39ZM46.73,75c-.3-.15-.6-.28-.91-.4L58.9,44.85a5.81,5.81,0,0,0,.92.4Zm15.09-30.8a4.74,4.74,0,1,1,4.74-4.73A4.73,4.73,0,0,1,61.82,44.18Zm4.64-.7,5.43,5.57c-.25.23-.49.45-.72.69l-5.43-5.56A6,6,0,0,0,66.46,43.48ZM84.08,78.86a16.59,16.59,0,1,1,16.59-16.59A16.59,16.59,0,0,1,84.08,78.86Z"/></g></g></svg>