<svg xmlns="http://www.w3.org/2000/svg" viewBox="0 0 113.39 126.01"><defs><style>.cls-1{fill:#231815;}.cls-2{fill:#d1161a;}</style></defs><g id="レイヤー_2" data-name="レイヤー 2"><g id="_2021" data-name="2021"><path class="cls-1" d="M0,119.19a6.65,6.65,0,0,1,7-6.75,7.75,7.75,0,0,1,4.54,1.3v3a6.13,6.13,0,0,0-4-1.51,4,4,0,0,0,0,8,6.07,6.07,0,0,0,4-1.51v3A7.82,7.82,0,0,1,7,125.93,6.64,6.64,0,0,1,0,119.19Z"/><path class="cls-1" d="M13.78,112.72h3.49v4.64h5.11v-4.64h3.49v12.93H22.38v-5.34H17.27v5.34H13.78Z"/><path class="cls-1" d="M32.84,112.72h2.95l5.43,12.93H37.75l-1.09-2.76H31.87l-1.07,2.76H27.41Zm3,7.91-1.55-4.07-1.55,4.07Z"/><path class="cls-1" d="M42.79,112.72h3.49V123h5.49v2.63h-9Z"/><path class="cls-1" d="M53.41,112.72H56.9V123h5.49v2.63h-9Z"/><path class="cls-1" d="M64,112.72h9v2.63H67.52v2.18h4.41v2.6H67.52V123H73v2.63H64Z"/><path class="cls-1" d="M75.42,112.72h2.65l5.86,7.44v-7.44H87v12.93H84.36l-5.86-7.43v7.43H75.42Z"/><path class="cls-1" d="M89.2,119.19c0-4.18,3.36-6.75,7.17-6.75a8.24,8.24,0,0,1,4.7,1.3v3a6.4,6.4,0,0,0-4.18-1.51c-2.39,0-4,1.47-4,4.2s1.55,4.12,3.75,4.12a4,4,0,0,0,1.72-.35V121H96.42v-2.41h5.19v6.18a14.34,14.34,0,0,1-5.54,1.2A6.64,6.64,0,0,1,89.2,119.19Z"/><path class="cls-1" d="M104.4,112.72h9v2.63h-5.5v2.18h4.42v2.6h-4.42V123h5.5v2.63h-9Z"/><path class="cls-1" d="M64.34,87.15a3.71,3.71,0,0,0,1-2.49V81a.93.93,0,0,0-1.07-1.07h-.38A.93.93,0,0,0,62.84,81v5H57.18V80.33c0-3.73,1.84-5.57,5.57-5.57h3c3.73,0,5.57,1.84,5.57,5.57v4.51c0,2.14-.56,3.72-2.4,6L64,97a3.67,3.67,0,0,0-1,2.48v.22h8.27V105H57.09V99.28c0-2.23.56-3.73,2.4-6Z"/><path class="cls-1" d="M82.26,105.28H78.57c-3.73,0-5.57-1.84-5.57-5.57V80.33c0-3.73,1.84-5.57,5.57-5.57h3.69c3.73,0,5.57,1.84,5.57,5.57V99.71C87.83,103.44,86,105.28,82.26,105.28ZM80.8,79.91H80A.93.93,0,0,0,79,81V99.07A.93.93,0,0,0,80,100.14h.77a.93.93,0,0,0,1.07-1.07V81A.93.93,0,0,0,80.8,79.91Z"/><path class="cls-1" d="M96.79,87.15a3.68,3.68,0,0,0,1-2.49V81a.93.93,0,0,0-1.07-1.07h-.39A.93.93,0,0,0,95.29,81v5H89.63V80.33c0-3.73,1.85-5.57,5.58-5.57h3c3.73,0,5.58,1.84,5.58,5.57v4.51c0,2.14-.56,3.72-2.4,6L96.49,97a3.67,3.67,0,0,0-1,2.48v.22h8.28V105H89.55V99.28c0-2.23.56-3.73,2.4-6Z"/><path class="cls-1" d="M113.39,105h-5.88V81.88h-2.83V77.72l.39,0a4.41,4.41,0,0,0,3.43-2.1l.51-.69h4.38Z"/><path class="cls-1" d="M6.09,75.08V99.73h7.84v2a3.31,3.31,0,0,1-3.31,3.31H.09v-30Z"/><path class="cls-1" d="M24.22,105.6H20.37c-3.73,0-5.58-1.84-5.58-5.57V80.65c0-3.73,1.85-5.57,5.58-5.57h3.85c3.73,0,5.58,1.84,5.58,5.57V100C29.8,103.76,28,105.6,24.22,105.6Zm-1.5-25.37h-.85a.94.94,0,0,0-1.08,1.07V99.39a.94.94,0,0,0,1.08,1.07h.85a.94.94,0,0,0,1.08-1.07V81.3A.94.94,0,0,0,22.72,80.23Z"/><path class="cls-1" d="M31.85,75.34H40.3c4.33,0,6.43,2.1,6.43,6.43V98.92c0,4.33-2.1,6.43-6.43,6.43H31.85Zm6,24.86h1.2c1.15,0,1.67-.51,1.67-1.67V82.15c0-1.15-.52-1.67-1.67-1.67h-1.2Z"/><path class="cls-2" d="M70.56,7.83a13.5,13.5,0,0,1,4.92,6.78h0a13.56,13.56,0,0,1-1.56,11.63A19.72,19.72,0,0,1,76,30.68c.11.32.21.66.3,1a20.37,20.37,0,0,0,1.51-1.83A18.76,18.76,0,0,0,80.47,13h0a18.62,18.62,0,0,0-6.83-9.4h0A18.64,18.64,0,0,0,62.61,0h0a18.49,18.49,0,0,0-3.41.32,19.82,19.82,0,0,1,3.54,2.06,19.45,19.45,0,0,1,3.63,3.39,13.63,13.63,0,0,1,4.21,2.06Z"/><path class="cls-2" d="M66.24,50.31a20.42,20.42,0,0,1-4.93-.61A13.56,13.56,0,0,1,43.8,41.14a13.38,13.38,0,0,1-.64-3.55A19.83,19.83,0,0,1,39,35.29h0l-.09-.07h0l-.09-.08c-.25-.18-.49-.36-.72-.55A18.46,18.46,0,0,0,37.9,37a19,19,0,0,0,.91,5.81h0a19,19,0,0,0,6.83,9.39,18.76,18.76,0,0,0,22.1,0,17.85,17.85,0,0,0,2.57-2.26,19.87,19.87,0,0,1-4.07.42Z"/><path class="cls-2" d="M29.27,35.82a18.65,18.65,0,0,0,6.83,9.4h0A18.33,18.33,0,0,0,39.05,47a19.91,19.91,0,0,1-1.66-3.75,20.26,20.26,0,0,1-.94-4.88,13.37,13.37,0,0,1-2.19-4.14h0a13.45,13.45,0,0,1,0-8.37h0a13.64,13.64,0,0,1,4.92-6.78h0a13.54,13.54,0,0,1,3.18-1.71,19.59,19.59,0,0,1,.93-4.82c.11-.32.22-.65.34-1a18.33,18.33,0,0,0-2.29.59,18.66,18.66,0,0,0-5.24,2.67h0a19,19,0,0,0-6.83,9.4,18.73,18.73,0,0,0,0,11.61Z"/><path class="cls-2" d="M35.22,13.6a20.28,20.28,0,0,1,4.35-2.41A13.6,13.6,0,0,1,50.78,5.24h0a13.69,13.69,0,0,1,8,2.59h0a13.69,13.69,0,0,1,2.61,2.49,20.11,20.11,0,0,1,4.87-.6l1,0a18.22,18.22,0,0,0-1.27-2,18.41,18.41,0,0,0-4.15-4.16A19,19,0,0,0,50.8,0h0A18.8,18.8,0,0,0,32.92,13h0a19.19,19.19,0,0,0-.75,3.34A19.78,19.78,0,0,1,35.22,13.6Z"/><path class="cls-2" d="M37.9,23h0c0-.17-.11-.34-.15-.51a12.07,12.07,0,0,0-2.07,3.81h0a12.54,12.54,0,0,0-.56,2.88l.47.67A18.66,18.66,0,0,0,39.74,34h0a18.93,18.93,0,0,0,7.54,3.24c-.12-.32-.24-.64-.34-1l-1.67-5.12a13.41,13.41,0,0,1-2.44-1.4h0A13.71,13.71,0,0,1,37.9,23Z"/><path class="cls-2" d="M44,21.19c.22-.19.46-.36.69-.53l4.46-3.24a13.38,13.38,0,0,1,.59-2.81h0a13.5,13.5,0,0,1,4.92-6.78h0c.15-.11.29-.21.44-.3a12,12,0,0,0-4.27-.79,12.26,12.26,0,0,0-2.91.35l-.49.66A18.56,18.56,0,0,0,44.71,13h0A19,19,0,0,0,44,21.19Z"/><path class="cls-2" d="M49.61,46.71a12.35,12.35,0,0,0,2.56,1.42c.26-.08.53-.15.79-.24a18.66,18.66,0,0,0,5.24-2.67,18.88,18.88,0,0,0,5.42-6.16c-.35,0-.68,0-1,0H57.21A13.37,13.37,0,0,1,55.12,41h0a13.38,13.38,0,0,1-3.78,1.93,13.59,13.59,0,0,1-4.19.66h-.53A12.27,12.27,0,0,0,49.61,46.71Z"/><path class="cls-2" d="M68.16,33.22a11.41,11.41,0,0,0-.74-1.77,13.48,13.48,0,0,1-4.83.9H54.32l.45,1.39a12.21,12.21,0,0,0,2.09,3.85h5.73a18.87,18.87,0,0,0,6.15-1A12.12,12.12,0,0,0,68.16,33.22Z"/><path class="cls-2" d="M46.58,30.35l1.78,5.47a19.08,19.08,0,0,0,2.89,5.53,12,12,0,0,0,3-1.56l0,0a12.14,12.14,0,0,0,1.45-1.25,13.63,13.63,0,0,1-2.34-4.32L50.8,26.37l-1.3.95A12.19,12.19,0,0,0,46.58,30.35Z"/><path class="cls-2" d="M41.17,26.33a12.58,12.58,0,0,0,2.43,2.35h0a12.31,12.31,0,0,0,1.64,1,13.47,13.47,0,0,1,3.38-3.56l6.83-5-1.21-.88a12.21,12.21,0,0,0-3.92-1.87l-4.79,3.48A18.84,18.84,0,0,0,41.17,26.33Z"/><path class="cls-2" d="M61.13,30.85h1.46a12,12,0,0,0,4.3-.8h0l1.77-5.45a18.73,18.73,0,0,0,.91-6.17A12.72,12.72,0,0,0,66.24,18a11.32,11.32,0,0,0-1.92.17A13.43,13.43,0,0,1,63.68,23Z"/><path class="cls-2" d="M52.61,12a12,12,0,0,0-1.49,3v0a11.91,11.91,0,0,0-.43,1.83,13.65,13.65,0,0,1,4.44,2.11l6.69,4.86.45-1.39a12.13,12.13,0,0,0,.57-4.33v0L58.2,14.81A19.09,19.09,0,0,0,52.61,12Z"/><path class="cls-2" d="M69.41,41.64a12.21,12.21,0,0,0,3.92-1.87,12,12,0,0,0,2.14-2c0-.27,0-.55,0-.82a18.69,18.69,0,0,0-5.11-12.86c-.08.32-.18.65-.28,1l-1.67,5.12a13,13,0,0,1,1.16,2.58,13.63,13.63,0,0,1,0,8.38Z"/><path class="cls-2" d="M79.13,34.2A13.44,13.44,0,0,1,74.2,41h0a13.66,13.66,0,0,1-8,2.59h0a13.55,13.55,0,0,1-3.58-.48,20.27,20.27,0,0,1-3.58,3.35l-.85.58a18.29,18.29,0,0,0,2.2.87,18.82,18.82,0,0,0,5.8.93h0a18.91,18.91,0,0,0,11-3.6,18.65,18.65,0,0,0,6.83-9.4h0a18.58,18.58,0,0,0,0-11.61,17.94,17.94,0,0,0-1.36-3.15,19.63,19.63,0,0,1-.86,4,20.26,20.26,0,0,1-2.1,4.5,13.6,13.6,0,0,1-.66,4.63Z"/><path class="cls-2" d="M66.24,11.22a18.92,18.92,0,0,0-7.83,1.72l.78.53,4.46,3.24a13.22,13.22,0,0,1,2.59-.25,13.49,13.49,0,0,1,8,2.59c.15.1.29.21.43.32a12.05,12.05,0,0,0-.57-4.3,12.42,12.42,0,0,0-1.24-2.66L72,12.14a18.76,18.76,0,0,0-5.8-.92Z"/></g></g></svg>