<svg xmlns="http://www.w3.org/2000/svg" viewBox="0 0 187.07 55.75"><defs><style>.cls-1{fill:#d1161a;}.cls-2{fill:#231815;}</style></defs><g id="レイヤー_2" data-name="レイヤー 2"><g id="_2021" data-name="2021"><path class="cls-1" d="M42.21,7.83a13.46,13.46,0,0,1,4.93,6.78h0a13.78,13.78,0,0,1,0,8.38,13.53,13.53,0,0,1-1.57,3.25,20.2,20.2,0,0,1,2.08,4.44c.11.32.2.66.29,1a20.37,20.37,0,0,0,1.51-1.83,18.61,18.61,0,0,0,2.67-5.23,18.9,18.9,0,0,0,0-11.62h0a18.62,18.62,0,0,0-6.83-9.4h0A18.64,18.64,0,0,0,34.26,0h0a18.66,18.66,0,0,0-3.41.32,20.26,20.26,0,0,1,3.55,2.06A19.77,19.77,0,0,1,38,5.77a13.68,13.68,0,0,1,4.2,2.06Z"/><path class="cls-1" d="M37.89,50.31A20.42,20.42,0,0,1,33,49.7a13.63,13.63,0,0,1-12.58-1.78,13.48,13.48,0,0,1-5.57-10.33,20.33,20.33,0,0,1-4.19-2.3h0l-.09-.07h0l-.1-.08c-.25-.18-.48-.36-.72-.55A18.46,18.46,0,0,0,9.55,37a18.73,18.73,0,0,0,.92,5.81h0a18.9,18.9,0,0,0,6.83,9.39,18.76,18.76,0,0,0,22.1,0A19,19,0,0,0,42,49.89a20,20,0,0,1-4.08.42Z"/><path class="cls-1" d="M.93,35.82a18.6,18.6,0,0,0,6.83,9.4h0A17.82,17.82,0,0,0,10.7,47a20.07,20.07,0,0,1-2.6-8.63A13.59,13.59,0,0,1,5.91,34.2h0a13.45,13.45,0,0,1,0-8.37h0a13.64,13.64,0,0,1,4.92-6.78h0A13.74,13.74,0,0,1,14,17.34a20.56,20.56,0,0,1,.93-4.82c.11-.32.23-.65.35-1a18.81,18.81,0,0,0-7.54,3.26h0a18.9,18.9,0,0,0-6.82,9.4,18.58,18.58,0,0,0,0,11.61Z"/><path class="cls-1" d="M6.87,13.6a20.78,20.78,0,0,1,4.35-2.41,13.68,13.68,0,0,1,3.26-3.36,13.48,13.48,0,0,1,8-2.59h0a13.71,13.71,0,0,1,8,2.59h0A13.63,13.63,0,0,1,33,10.32a20.17,20.17,0,0,1,4.87-.6c.35,0,.69,0,1,0a18.22,18.22,0,0,0-1.27-2A18.41,18.41,0,0,0,33.5,3.59,18.94,18.94,0,0,0,22.45,0h0A18.8,18.8,0,0,0,4.57,13h0a19.19,19.19,0,0,0-.75,3.34A20.25,20.25,0,0,1,6.87,13.6Z"/><path class="cls-1" d="M9.55,23h0l-.15-.51a12,12,0,0,0-2.06,3.81h0a12,12,0,0,0-.57,2.88l.47.67A18.92,18.92,0,0,0,11.4,34h0a18.87,18.87,0,0,0,7.54,3.24c-.13-.32-.24-.64-.35-1l-1.66-5.12a13.5,13.5,0,0,1-2.45-1.4h0A13.71,13.71,0,0,1,9.55,23Z"/><path class="cls-1" d="M15.61,21.19c.23-.19.46-.36.7-.53l4.46-3.24a12.76,12.76,0,0,1,.58-2.81h0a13.65,13.65,0,0,1,1.93-3.78,13.34,13.34,0,0,1,3-3h0a4.15,4.15,0,0,1,.43-.3,12,12,0,0,0-4.27-.79,12.18,12.18,0,0,0-2.9.35l-.5.66A18.27,18.27,0,0,0,16.37,13h0A18.82,18.82,0,0,0,15.61,21.19Z"/><path class="cls-1" d="M21.26,46.71a12.35,12.35,0,0,0,2.56,1.42c.27-.08.53-.15.79-.24a18.53,18.53,0,0,0,5.24-2.67,18.76,18.76,0,0,0,5.42-6.16l-1,0H28.87A13,13,0,0,1,26.77,41h0A13.38,13.38,0,0,1,23,42.91a13.59,13.59,0,0,1-4.19.66h-.53A12.27,12.27,0,0,0,21.26,46.71Z"/><path class="cls-1" d="M39.82,33.22a12.48,12.48,0,0,0-.74-1.77,13.56,13.56,0,0,1-4.83.9H26l.45,1.39a12.23,12.23,0,0,0,2.1,3.85h5.73a18.85,18.85,0,0,0,6.14-1A12.11,12.11,0,0,0,39.82,33.22Z"/><path class="cls-1" d="M18.24,30.35,20,35.82a18.87,18.87,0,0,0,2.9,5.53,12.14,12.14,0,0,0,3-1.56l0,0a11.4,11.4,0,0,0,1.45-1.25A13.63,13.63,0,0,1,25,34.2l-2.54-7.83-1.31.95A12.16,12.16,0,0,0,18.24,30.35Z"/><path class="cls-1" d="M12.83,26.33a12.53,12.53,0,0,0,2.42,2.35h0a13,13,0,0,0,1.64,1,13.63,13.63,0,0,1,3.38-3.56l6.83-5-1.21-.88A12.16,12.16,0,0,0,22,18.39l-4.79,3.48A18.65,18.65,0,0,0,12.83,26.33Z"/><path class="cls-1" d="M32.78,30.85h1.47a12,12,0,0,0,4.29-.8h0l1.77-5.45a18.73,18.73,0,0,0,.91-6.17A12.6,12.6,0,0,0,37.89,18a11.3,11.3,0,0,0-1.91.17A13.65,13.65,0,0,1,35.34,23Z"/><path class="cls-1" d="M24.26,12a12,12,0,0,0-1.49,3v0a11.91,11.91,0,0,0-.43,1.83,13.55,13.55,0,0,1,4.44,2.11l6.69,4.86.46-1.39a12.12,12.12,0,0,0,.56-4.33v0l-4.63-3.36A19,19,0,0,0,24.26,12Z"/><path class="cls-1" d="M41.07,41.64A12.26,12.26,0,0,0,45,39.77a11.62,11.62,0,0,0,2.14-2c0-.27,0-.55,0-.82a19,19,0,0,0-.91-5.81,18.82,18.82,0,0,0-4.19-7c-.09.32-.19.65-.29,1l-1.66,5.12a13.59,13.59,0,0,1,1.15,11C41.18,41.31,41.13,41.48,41.07,41.64Z"/><path class="cls-1" d="M50.78,34.2A13.42,13.42,0,0,1,45.86,41h0a13.71,13.71,0,0,1-8,2.59h0a13.55,13.55,0,0,1-3.58-.48,20.27,20.27,0,0,1-3.58,3.35l-.85.58a19,19,0,0,0,8,1.8h0a19,19,0,0,0,11-3.6,18.65,18.65,0,0,0,6.83-9.4h0a18.85,18.85,0,0,0-1.36-14.76,21.06,21.06,0,0,1-.86,4,20.3,20.3,0,0,1-2.11,4.5,13.6,13.6,0,0,1-.66,4.63Z"/><path class="cls-1" d="M37.89,11.22a18.92,18.92,0,0,0-7.83,1.72c.26.17.53.35.78.53l4.46,3.24a13.22,13.22,0,0,1,2.59-.25,13.49,13.49,0,0,1,8,2.59l.42.32a12,12,0,0,0-1.81-7c-.25-.09-.51-.19-.77-.27a18.82,18.82,0,0,0-5.81-.92Z"/><path class="cls-2" d="M73.68,48a6.65,6.65,0,0,1,7-6.75,7.78,7.78,0,0,1,4.55,1.3v3a6.12,6.12,0,0,0-4-1.51,3.66,3.66,0,0,0-3.83,4,3.67,3.67,0,0,0,3.83,4,6.12,6.12,0,0,0,4-1.51v3a7.78,7.78,0,0,1-4.55,1.3A6.64,6.64,0,0,1,73.68,48Z"/><path class="cls-2" d="M87.47,41.53H91v4.63h5.1V41.53h3.49V54.46H96.06V49.12H91v5.34H87.47Z"/><path class="cls-2" d="M106.53,41.53h3l5.43,12.93h-3.47l-1.1-2.76h-4.78l-1.08,2.76H101.1Zm3,7.91L108,45.37l-1.55,4.07Z"/><path class="cls-2" d="M116.47,41.53H120v10.3h5.5v2.63h-9Z"/><path class="cls-2" d="M127.09,41.53h3.49v10.3h5.49v2.63h-9Z"/><path class="cls-2" d="M137.71,41.53h9v2.63H141.2v2.18h4.41v2.6H141.2v2.89h5.49v2.63h-9Z"/><path class="cls-2" d="M149.1,41.53h2.65L157.61,49V41.53h3.08V54.46H158L152.18,47v7.43H149.1Z"/><path class="cls-2" d="M162.88,48c0-4.18,3.36-6.75,7.18-6.75a8.22,8.22,0,0,1,4.69,1.3v3A6.4,6.4,0,0,0,170.57,44c-2.39,0-4,1.47-4,4.2s1.55,4.11,3.74,4.11A4.07,4.07,0,0,0,172,52V49.85H170.1V47.44h5.19v6.18a14.29,14.29,0,0,1-5.54,1.2A6.64,6.64,0,0,1,162.88,48Z"/><path class="cls-2" d="M178.09,41.53h9v2.63h-5.49v2.18H186v2.6h-4.41v2.89h5.49v2.63h-9Z"/><path class="cls-2" d="M137.93,13.31a3.7,3.7,0,0,0,1-2.48V7.14a.93.93,0,0,0-1.07-1.07h-.38a.93.93,0,0,0-1.07,1.07v5h-5.66V6.5c0-3.73,1.84-5.58,5.57-5.58h3c3.73,0,5.57,1.85,5.57,5.58V11c0,2.14-.56,3.73-2.4,6l-4.84,6.09a3.67,3.67,0,0,0-1,2.48v.22h8.27v5.36H130.68V25.44c0-2.23.56-3.73,2.4-6Z"/><path class="cls-2" d="M155.85,31.45h-3.69c-3.73,0-5.57-1.85-5.57-5.58V6.5c0-3.73,1.84-5.58,5.57-5.58h3.69c3.73,0,5.57,1.85,5.57,5.58V25.87C161.42,29.6,159.58,31.45,155.85,31.45ZM154.39,6.07h-.77a.93.93,0,0,0-1.07,1.07V25.23a.93.93,0,0,0,1.07,1.07h.77a.93.93,0,0,0,1.07-1.07V7.14A.93.93,0,0,0,154.39,6.07Z"/><path class="cls-2" d="M170.38,13.31a3.67,3.67,0,0,0,1-2.48V7.14a.93.93,0,0,0-1.07-1.07H170a.94.94,0,0,0-1.07,1.07v5h-5.66V6.5c0-3.73,1.85-5.58,5.58-5.58h3c3.72,0,5.57,1.85,5.57,5.58V11c0,2.14-.56,3.73-2.4,6l-4.85,6.09a3.67,3.67,0,0,0-1,2.48v.22h8.28v5.36H163.14V25.44c0-2.23.56-3.73,2.4-6Z"/><path class="cls-2" d="M187,31.19H181.1V8h-2.83V3.88l.39,0a4.39,4.39,0,0,0,3.43-2.1l.51-.69H187Z"/><path class="cls-2" d="M79.68,1.24V25.89h7.84v2.05a3.31,3.31,0,0,1-3.3,3.31H73.68v-30Z"/><path class="cls-2" d="M97.81,31.77H94c-3.73,0-5.58-1.85-5.58-5.58V6.82c0-3.73,1.85-5.58,5.58-5.58h3.85c3.73,0,5.58,1.85,5.58,5.58V26.19C103.39,29.92,101.54,31.77,97.81,31.77ZM96.31,6.39h-.85a.94.94,0,0,0-1.08,1.07V25.55a.94.94,0,0,0,1.08,1.07h.85a.94.94,0,0,0,1.08-1.07V7.46A.94.94,0,0,0,96.31,6.39Z"/><path class="cls-2" d="M105.45,1.5h8.44c4.33,0,6.43,2.1,6.43,6.43V25.08c0,4.33-2.1,6.43-6.43,6.43h-8.44Zm6,24.86h1.2c1.15,0,1.67-.51,1.67-1.67V8.32c0-1.16-.52-1.68-1.67-1.68h-1.2Z"/></g></g></svg>